# xmcd
#
# Track frame offsets: 
#        150
#        13238
#        23726
#        38612
#        51996
#        68765
#        80055
#        100374
#        114990
#        133250
#
# Disc length: 1901 seconds
#
# Revision: 0
# Processed by: cddbd v1.5.2PL0 Copyright (c) Steve Scherf et al.
# Submitted via: ExactAudioCopy v0.99pb4
#
DISCID=84076b0a
DTITLE=Various Artist - Timeless: R&B Ballads
DYEAR=2007
DGENRE=R&B
TTITLE0=Etta James - At Last
TTITLE1=Dionne Warwick - This Girl's in Love With You (Live)
TTITLE2=Delfonics, The - Didn't I (Blow Your Mind This Time)
TTITLE3=James Brown - Lost Someone
TTITLE4=Major Harris - Love Won't Let Me Wait
TTITLE5=Solomon Burke - If You Need Me
TTITLE6=Spinners, The - Mighty Love (Live)
TTITLE7=Sam and Dave - When Something is Wrong With My Baby
TTITLE8=Mary Wells - What Love Has Joined Together
TTITLE9=Al Jarreau - Ain't No Sunshine
EXTD=
EXTT0=
EXTT1=
EXTT2=
EXTT3=
EXTT4=
EXTT5=
EXTT6=
EXTT7=
EXTT8=
EXTT9=
PLAYORDER=
